<svg width="88" height="101" viewBox="0 0 88 101" fill="none" xmlns="http://www.w3.org/2000/svg">
    <g transform="translate(8, 13)">
    <path fill-rule="evenodd" clip-rule="evenodd" d="M30.9898 0H21.1656V14.8293C19.6989 14.4536 18.4853 14.3283 16.8921 14.3283C6.62532 14.3283 0 20.766 0 30.6856C0 40.9809 6.24602 46.3415 18.245 46.354C22.2532 46.354 25.9577 45.9795 30.9898 45.0277V0ZM18.1972 22.4427C19.4111 22.4427 20.3593 22.568 21.5099 22.9438V38.5633C20.1065 38.7512 19.2214 38.8124 18.1342 38.8124C13.102 38.8124 10.3582 35.9569 10.3582 30.7853C10.3582 25.4737 13.2283 22.4427 18.1972 22.4427Z" fill="#bababa"/>
    <path d="M47.0563 38.0819V15.5373H37.2446V34.7251C37.2446 43.1918 36.8021 46.4108 35.3988 49.19C34.0585 51.9078 31.9597 53.6887 27.6229 55.7041L36.739 60C41.0758 57.8446 43.1746 55.8932 44.7678 52.7984C46.4747 49.5795 47.0563 45.8458 47.0563 38.0819Z" fill="#bababa"/>
    <path d="M46.0788 0H36.2546V9.98224H46.0788V0Z" fill="#bababa"/>
  <text x="0" y="83" font-family="Helvetica" font-size="16" font-weight="700" fill="#bababa">Django</text>
  </g>
</svg>