<svg width="88" height="101" viewBox="0 0 88 101" fill="none" xmlns="http://www.w3.org/2000/svg">
    <g transform="translate(25, 11)">
        <path fill-rule="evenodd" clip-rule="evenodd" d="M5.80591 9.41536C5.02632 10.1446 4.898 10.6568 4.898 10.9267C4.898 11.1966 5.02632 11.7089 5.80591 12.4381C6.58954 13.1711 7.85639 13.9439 9.62627 14.6441C13.1517 16.0389 18.1894 16.9555 23.8777 16.9555C29.5661 16.9555 34.6038 16.0389 38.1292 14.6441C39.8991 13.9439 41.166 13.1711 41.9496 12.4381C42.7292 11.7089 42.8575 11.1966 42.8575 10.9267C42.8575 10.6568 42.7292 10.1446 41.9496 9.41536C41.166 8.68238 39.8991 7.90954 38.1292 7.20933C34.6038 5.81459 29.5661 4.898 23.8777 4.898C18.1894 4.898 13.1517 5.81459 9.62627 7.20933C7.85639 7.90954 6.58954 8.68238 5.80591 9.41536ZM7.82439 2.65481C12.0547 0.981212 17.7314 0 23.8777 0C30.0241 0 35.7008 0.981212 39.9311 2.65481C42.0391 3.48877 43.9104 4.54272 45.2954 5.83827C46.6846 7.13759 47.7555 8.85557 47.7555 10.9267C47.7555 12.9979 46.6846 14.7159 45.2954 16.0152C43.9104 17.3107 42.0391 18.3647 39.9311 19.1986C35.7008 20.8722 30.0241 21.8535 23.8777 21.8535C17.7314 21.8535 12.0547 20.8722 7.82439 19.1986C5.71644 18.3647 3.84512 17.3107 2.46004 16.0152C1.07093 14.7159 0 12.9979 0 10.9267C0 8.85557 1.07093 7.13759 2.46004 5.83827C3.84512 4.54272 5.71644 3.48877 7.82439 2.65481Z" fill="#bababa"/>
        <path fill-rule="evenodd" clip-rule="evenodd" d="M2.449 8.47823C3.80154 8.47823 4.898 9.57418 4.898 10.9267V23.6438C4.898 23.9139 5.02638 24.4262 5.80591 25.1554C6.5895 25.8884 7.8563 26.6612 9.62616 27.3614C13.1515 28.7561 18.1892 29.6726 23.8777 29.6726C29.5663 29.6726 34.604 28.7561 38.1293 27.3614C39.8992 26.6612 41.166 25.8884 41.9496 25.1554C42.7291 24.4262 42.8575 23.9139 42.8575 23.6438V10.9267C42.8575 9.57418 43.9539 8.47823 45.3065 8.47823C46.659 8.47823 47.7555 9.57418 47.7555 10.9267V23.6438C47.7555 25.715 46.6847 27.433 45.2955 28.7324C43.9104 30.028 42.0391 31.082 39.9312 31.9159C35.7009 33.5895 30.0242 34.5706 23.8777 34.5706C17.7313 34.5706 12.0546 33.5895 7.82432 31.9159C5.71637 31.082 3.84505 30.028 2.45998 28.7324C1.07083 27.433 0 25.715 0 23.6438V10.9267C0 9.57418 1.09645 8.47823 2.449 8.47823Z" fill="#bababa"/>
        <path fill-rule="evenodd" clip-rule="evenodd" d="M2.449 21.1948C3.80154 21.1948 4.898 22.2913 4.898 23.6438V36.3604C4.898 36.6305 5.02638 37.1428 5.80591 37.872C6.5895 38.605 7.8563 39.3778 9.62616 40.078C13.1515 41.4726 18.1892 42.3891 23.8777 42.3891C29.5663 42.3891 34.604 41.4726 38.1293 40.078C39.8992 39.3778 41.166 38.605 41.9496 37.872C42.7291 37.1428 42.8575 36.6305 42.8575 36.3604V23.6438C42.8575 22.2913 43.9539 21.1948 45.3065 21.1948C46.659 21.1948 47.7555 22.2913 47.7555 23.6438V36.3604C47.7555 38.4316 46.6847 40.1496 45.2955 41.449C43.9104 42.7446 42.0391 43.7986 39.9312 44.6325C35.7009 46.306 30.0242 47.2871 23.8777 47.2871C17.7313 47.2871 12.0546 46.306 7.82432 44.6325C5.71637 43.7986 3.84505 42.7446 2.45998 41.449C1.07083 40.1496 0 38.4316 0 36.3604V23.6438C0 22.2913 1.09645 21.1948 2.449 21.1948Z" fill="#bababa"/>
        <path fill-rule="evenodd" clip-rule="evenodd" d="M2.449 33.9077C3.80154 33.9077 4.898 35.0041 4.898 36.3567V49.0733C4.898 49.3433 5.02638 49.8557 5.80591 50.5848C6.5895 51.3178 7.8563 52.0906 9.62616 52.7908C13.1515 54.1855 18.1892 55.102 23.8777 55.102C29.5663 55.102 34.604 54.1855 38.1293 52.7908C39.8992 52.0906 41.166 51.3178 41.9496 50.5848C42.7291 49.8557 42.8575 49.3433 42.8575 49.0733V36.3567C42.8575 35.0041 43.9539 33.9077 45.3065 33.9077C46.659 33.9077 47.7555 35.0041 47.7555 36.3567V49.0733C47.7555 51.1445 46.6847 52.8625 45.2955 54.1619C43.9104 55.4575 42.0391 56.5114 39.9312 57.3453C35.7009 59.0189 30.0242 60 23.8777 60C17.7313 60 12.0546 59.0189 7.82432 57.3453C5.71637 56.5114 3.84505 55.4575 2.45998 54.1619C1.07083 52.8625 0 51.1445 0 49.0733V36.3567C0 35.0041 1.09645 33.9077 2.449 33.9077Z" fill="#bababa"/>
      <text x="8" y="87" font-family="Helvetica" font-size="16" font-weight="700" fill="#bababa">SQL</text>
  </g>
</svg>
